<mxfile host="app.diagrams.net" agent="Mozilla/5.0 (Windows NT 10.0; Win64; x64) AppleWebKit/537.36 (KHTML, like Gecko) Chrome/134.0.0.0 Safari/537.36" version="26.1.3">
  <diagram name="Page-1" id="edf60f1a-56cd-e834-aa8a-f176f3a09ee4">
    <mxGraphModel dx="3457" dy="1887" grid="0" gridSize="10" guides="1" tooltips="1" connect="1" arrows="1" fold="1" page="1" pageScale="1" pageWidth="3300" pageHeight="4681" background="none" math="0" shadow="0">
      <root>
        <mxCell id="0" />
        <mxCell id="1" parent="0" />
        <mxCell id="9CXjgOA-zutFCyBPXSmV-1" value="" style="points=[[0.145,0.145,0],[0.5,0,0],[0.855,0.145,0],[1,0.5,0],[0.855,0.855,0],[0.5,1,0],[0.145,0.855,0],[0,0.5,0]];shape=mxgraph.bpmn.event;html=1;verticalLabelPosition=bottom;labelBackgroundColor=#ffffff;verticalAlign=top;align=center;perimeter=ellipsePerimeter;outlineConnect=0;aspect=fixed;outline=standard;symbol=general;" vertex="1" parent="1">
          <mxGeometry x="730" y="410" width="50" height="50" as="geometry" />
        </mxCell>
        <mxCell id="9CXjgOA-zutFCyBPXSmV-6" value="webapp will automatically display the list of possible name that is in the database." style="points=[[0.25,0,0],[0.5,0,0],[0.75,0,0],[1,0.25,0],[1,0.5,0],[1,0.75,0],[0.75,1,0],[0.5,1,0],[0.25,1,0],[0,0.75,0],[0,0.5,0],[0,0.25,0]];shape=mxgraph.bpmn.task2;whiteSpace=wrap;rectStyle=rounded;size=10;html=1;container=1;expand=0;collapsible=0;taskMarker=script;" vertex="1" parent="1">
          <mxGeometry x="695" y="780" width="120" height="80" as="geometry" />
        </mxCell>
        <mxCell id="9CXjgOA-zutFCyBPXSmV-7" style="edgeStyle=orthogonalEdgeStyle;rounded=0;orthogonalLoop=1;jettySize=auto;html=1;exitX=0.5;exitY=1;exitDx=0;exitDy=0;exitPerimeter=0;entryX=0.5;entryY=0;entryDx=0;entryDy=0;entryPerimeter=0;" edge="1" parent="1" target="9CXjgOA-zutFCyBPXSmV-6">
          <mxGeometry relative="1" as="geometry">
            <mxPoint x="755" y="730" as="sourcePoint" />
          </mxGeometry>
        </mxCell>
        <mxCell id="9CXjgOA-zutFCyBPXSmV-8" value="student_data.csv" style="shape=datastore;html=1;labelPosition=center;verticalLabelPosition=bottom;align=center;verticalAlign=top;" vertex="1" parent="1">
          <mxGeometry x="270" y="770" width="100" height="100" as="geometry" />
        </mxCell>
        <mxCell id="9CXjgOA-zutFCyBPXSmV-10" value="Read via pandas" style="points=[[0.25,0,0],[0.5,0,0],[0.75,0,0],[1,0.25,0],[1,0.5,0],[1,0.75,0],[0.75,1,0],[0.5,1,0],[0.25,1,0],[0,0.75,0],[0,0.5,0],[0,0.25,0]];shape=mxgraph.bpmn.task2;whiteSpace=wrap;rectStyle=rounded;size=10;html=1;container=1;expand=0;collapsible=0;taskMarker=script;" vertex="1" parent="1">
          <mxGeometry x="440" y="780" width="120" height="80" as="geometry" />
        </mxCell>
        <mxCell id="9CXjgOA-zutFCyBPXSmV-11" style="edgeStyle=orthogonalEdgeStyle;rounded=0;orthogonalLoop=1;jettySize=auto;html=1;exitX=1;exitY=0.5;exitDx=0;exitDy=0;exitPerimeter=0;entryX=0;entryY=0.5;entryDx=0;entryDy=0;entryPerimeter=0;" edge="1" parent="1" source="9CXjgOA-zutFCyBPXSmV-10" target="9CXjgOA-zutFCyBPXSmV-6">
          <mxGeometry relative="1" as="geometry" />
        </mxCell>
        <mxCell id="9CXjgOA-zutFCyBPXSmV-12" style="edgeStyle=orthogonalEdgeStyle;rounded=0;orthogonalLoop=1;jettySize=auto;html=1;exitX=1;exitY=0.5;exitDx=0;exitDy=0;entryX=0;entryY=0.5;entryDx=0;entryDy=0;entryPerimeter=0;" edge="1" parent="1" source="9CXjgOA-zutFCyBPXSmV-8" target="9CXjgOA-zutFCyBPXSmV-10">
          <mxGeometry relative="1" as="geometry" />
        </mxCell>
        <mxCell id="9CXjgOA-zutFCyBPXSmV-13" value="In Result Section type in the student name in the First Place or Second Place or Third place or Last Place Input" style="points=[[0.25,0,0],[0.5,0,0],[0.75,0,0],[1,0.25,0],[1,0.5,0],[1,0.75,0],[0.75,1,0],[0.5,1,0],[0.25,1,0],[0,0.75,0],[0,0.5,0],[0,0.25,0]];shape=mxgraph.bpmn.task2;whiteSpace=wrap;rectStyle=rounded;size=10;html=1;container=1;expand=0;collapsible=0;taskMarker=manual;" vertex="1" parent="1">
          <mxGeometry x="695" y="650" width="120" height="80" as="geometry" />
        </mxCell>
        <mxCell id="9CXjgOA-zutFCyBPXSmV-14" value="Enter the Target Column Name" style="points=[[0.25,0,0],[0.5,0,0],[0.75,0,0],[1,0.25,0],[1,0.5,0],[1,0.75,0],[0.75,1,0],[0.5,1,0],[0.25,1,0],[0,0.75,0],[0,0.5,0],[0,0.25,0]];shape=mxgraph.bpmn.task2;whiteSpace=wrap;rectStyle=rounded;size=10;html=1;container=1;expand=0;collapsible=0;taskMarker=manual;" vertex="1" parent="1">
          <mxGeometry x="695" y="510" width="120" height="80" as="geometry" />
        </mxCell>
        <mxCell id="9CXjgOA-zutFCyBPXSmV-15" value="Search for the Name in student Data and check the Googlesheet URL" style="points=[[0.25,0,0],[0.5,0,0],[0.75,0,0],[1,0.25,0],[1,0.5,0],[1,0.75,0],[0.75,1,0],[0.5,1,0],[0.25,1,0],[0,0.75,0],[0,0.5,0],[0,0.25,0]];shape=mxgraph.bpmn.task2;whiteSpace=wrap;rectStyle=rounded;size=10;html=1;container=1;expand=0;collapsible=0;taskMarker=script;fontSize=10;" vertex="1" parent="1">
          <mxGeometry x="695" y="1520" width="120" height="80" as="geometry" />
        </mxCell>
        <mxCell id="9CXjgOA-zutFCyBPXSmV-21" style="edgeStyle=orthogonalEdgeStyle;rounded=0;orthogonalLoop=1;jettySize=auto;html=1;exitX=0.5;exitY=1;exitDx=0;exitDy=0;exitPerimeter=0;" edge="1" parent="1" source="9CXjgOA-zutFCyBPXSmV-16" target="9CXjgOA-zutFCyBPXSmV-18">
          <mxGeometry relative="1" as="geometry" />
        </mxCell>
        <mxCell id="9CXjgOA-zutFCyBPXSmV-16" value="User will click the right name based on options" style="points=[[0.25,0,0],[0.5,0,0],[0.75,0,0],[1,0.25,0],[1,0.5,0],[1,0.75,0],[0.75,1,0],[0.5,1,0],[0.25,1,0],[0,0.75,0],[0,0.5,0],[0,0.25,0]];shape=mxgraph.bpmn.task2;whiteSpace=wrap;rectStyle=rounded;size=10;html=1;container=1;expand=0;collapsible=0;taskMarker=manual;" vertex="1" parent="1">
          <mxGeometry x="695" y="910" width="120" height="80" as="geometry" />
        </mxCell>
        <mxCell id="9CXjgOA-zutFCyBPXSmV-17" style="edgeStyle=orthogonalEdgeStyle;rounded=0;orthogonalLoop=1;jettySize=auto;html=1;exitX=0.5;exitY=1;exitDx=0;exitDy=0;exitPerimeter=0;entryX=0.5;entryY=0;entryDx=0;entryDy=0;entryPerimeter=0;" edge="1" parent="1" source="9CXjgOA-zutFCyBPXSmV-6" target="9CXjgOA-zutFCyBPXSmV-16">
          <mxGeometry relative="1" as="geometry" />
        </mxCell>
        <mxCell id="9CXjgOA-zutFCyBPXSmV-18" value="User will click + button&amp;nbsp;" style="points=[[0.25,0,0],[0.5,0,0],[0.75,0,0],[1,0.25,0],[1,0.5,0],[1,0.75,0],[0.75,1,0],[0.5,1,0],[0.25,1,0],[0,0.75,0],[0,0.5,0],[0,0.25,0]];shape=mxgraph.bpmn.task2;whiteSpace=wrap;rectStyle=rounded;size=10;html=1;container=1;expand=0;collapsible=0;taskMarker=manual;" vertex="1" parent="1">
          <mxGeometry x="695" y="1040" width="120" height="80" as="geometry" />
        </mxCell>
        <mxCell id="9CXjgOA-zutFCyBPXSmV-19" style="edgeStyle=orthogonalEdgeStyle;rounded=0;orthogonalLoop=1;jettySize=auto;html=1;exitX=0.5;exitY=1;exitDx=0;exitDy=0;exitPerimeter=0;entryX=0.5;entryY=0;entryDx=0;entryDy=0;entryPerimeter=0;" edge="1" parent="1" source="9CXjgOA-zutFCyBPXSmV-1" target="9CXjgOA-zutFCyBPXSmV-14">
          <mxGeometry relative="1" as="geometry" />
        </mxCell>
        <mxCell id="9CXjgOA-zutFCyBPXSmV-20" style="edgeStyle=orthogonalEdgeStyle;rounded=0;orthogonalLoop=1;jettySize=auto;html=1;exitX=0.5;exitY=1;exitDx=0;exitDy=0;exitPerimeter=0;entryX=0.5;entryY=0;entryDx=0;entryDy=0;entryPerimeter=0;" edge="1" parent="1" source="9CXjgOA-zutFCyBPXSmV-14" target="9CXjgOA-zutFCyBPXSmV-13">
          <mxGeometry relative="1" as="geometry" />
        </mxCell>
        <mxCell id="9CXjgOA-zutFCyBPXSmV-25" style="edgeStyle=orthogonalEdgeStyle;rounded=0;orthogonalLoop=1;jettySize=auto;html=1;exitX=1;exitY=0.5;exitDx=0;exitDy=0;exitPerimeter=0;entryX=1;entryY=0.5;entryDx=0;entryDy=0;entryPerimeter=0;" edge="1" parent="1" source="9CXjgOA-zutFCyBPXSmV-22" target="9CXjgOA-zutFCyBPXSmV-14">
          <mxGeometry relative="1" as="geometry">
            <mxPoint x="970" y="700" as="targetPoint" />
            <Array as="points">
              <mxPoint x="960" y="1195" />
              <mxPoint x="960" y="550" />
            </Array>
          </mxGeometry>
        </mxCell>
        <mxCell id="9CXjgOA-zutFCyBPXSmV-28" value="No" style="edgeLabel;html=1;align=center;verticalAlign=middle;resizable=0;points=[];" vertex="1" connectable="0" parent="9CXjgOA-zutFCyBPXSmV-25">
          <mxGeometry x="-0.8843" y="2" relative="1" as="geometry">
            <mxPoint as="offset" />
          </mxGeometry>
        </mxCell>
        <mxCell id="9CXjgOA-zutFCyBPXSmV-22" value="Is all student accounted for?" style="points=[[0.25,0.25,0],[0.5,0,0],[0.75,0.25,0],[1,0.5,0],[0.75,0.75,0],[0.5,1,0],[0.25,0.75,0],[0,0.5,0]];shape=mxgraph.bpmn.gateway2;html=1;verticalLabelPosition=top;labelBackgroundColor=#ffffff;verticalAlign=bottom;align=right;perimeter=rhombusPerimeter;outlineConnect=0;outline=none;symbol=none;gwType=exclusive;labelPosition=left;" vertex="1" parent="1">
          <mxGeometry x="730" y="1170" width="50" height="50" as="geometry" />
        </mxCell>
        <mxCell id="9CXjgOA-zutFCyBPXSmV-23" style="edgeStyle=orthogonalEdgeStyle;rounded=0;orthogonalLoop=1;jettySize=auto;html=1;exitX=0.5;exitY=1;exitDx=0;exitDy=0;exitPerimeter=0;entryX=0.5;entryY=0;entryDx=0;entryDy=0;entryPerimeter=0;" edge="1" parent="1" source="9CXjgOA-zutFCyBPXSmV-18" target="9CXjgOA-zutFCyBPXSmV-22">
          <mxGeometry relative="1" as="geometry" />
        </mxCell>
        <mxCell id="9CXjgOA-zutFCyBPXSmV-29" style="edgeStyle=orthogonalEdgeStyle;rounded=0;orthogonalLoop=1;jettySize=auto;html=1;exitX=0.5;exitY=1;exitDx=0;exitDy=0;exitPerimeter=0;entryX=0.5;entryY=0;entryDx=0;entryDy=0;entryPerimeter=0;" edge="1" parent="1" source="9CXjgOA-zutFCyBPXSmV-22" target="9CXjgOA-zutFCyBPXSmV-31">
          <mxGeometry relative="1" as="geometry">
            <mxPoint x="755" y="1290" as="targetPoint" />
          </mxGeometry>
        </mxCell>
        <mxCell id="9CXjgOA-zutFCyBPXSmV-30" value="Yes" style="edgeLabel;html=1;align=center;verticalAlign=middle;resizable=0;points=[];" vertex="1" connectable="0" parent="9CXjgOA-zutFCyBPXSmV-29">
          <mxGeometry x="-0.2286" y="-1" relative="1" as="geometry">
            <mxPoint as="offset" />
          </mxGeometry>
        </mxCell>
        <mxCell id="9CXjgOA-zutFCyBPXSmV-32" style="edgeStyle=orthogonalEdgeStyle;rounded=0;orthogonalLoop=1;jettySize=auto;html=1;exitX=1;exitY=0.5;exitDx=0;exitDy=0;exitPerimeter=0;entryX=1;entryY=0.5;entryDx=0;entryDy=0;entryPerimeter=0;" edge="1" parent="1" source="9CXjgOA-zutFCyBPXSmV-31" target="9CXjgOA-zutFCyBPXSmV-14">
          <mxGeometry relative="1" as="geometry">
            <mxPoint x="1080" y="580" as="targetPoint" />
            <Array as="points">
              <mxPoint x="960" y="1315" />
              <mxPoint x="960" y="550" />
            </Array>
          </mxGeometry>
        </mxCell>
        <mxCell id="9CXjgOA-zutFCyBPXSmV-33" value="No" style="edgeLabel;html=1;align=center;verticalAlign=middle;resizable=0;points=[];" vertex="1" connectable="0" parent="9CXjgOA-zutFCyBPXSmV-32">
          <mxGeometry x="-0.8771" y="-2" relative="1" as="geometry">
            <mxPoint as="offset" />
          </mxGeometry>
        </mxCell>
        <mxCell id="9CXjgOA-zutFCyBPXSmV-31" value="Done with all the inputs??" style="points=[[0.25,0.25,0],[0.5,0,0],[0.75,0.25,0],[1,0.5,0],[0.75,0.75,0],[0.5,1,0],[0.25,0.75,0],[0,0.5,0]];shape=mxgraph.bpmn.gateway2;html=1;verticalLabelPosition=top;labelBackgroundColor=#ffffff;verticalAlign=bottom;align=right;perimeter=rhombusPerimeter;outlineConnect=0;outline=none;symbol=none;gwType=exclusive;labelPosition=left;" vertex="1" parent="1">
          <mxGeometry x="730" y="1290" width="50" height="50" as="geometry" />
        </mxCell>
        <mxCell id="9CXjgOA-zutFCyBPXSmV-34" value="Press Execute" style="points=[[0.25,0,0],[0.5,0,0],[0.75,0,0],[1,0.25,0],[1,0.5,0],[1,0.75,0],[0.75,1,0],[0.5,1,0],[0.25,1,0],[0,0.75,0],[0,0.5,0],[0,0.25,0]];shape=mxgraph.bpmn.task2;whiteSpace=wrap;rectStyle=rounded;size=10;html=1;container=1;expand=0;collapsible=0;taskMarker=manual;" vertex="1" parent="1">
          <mxGeometry x="695" y="1380" width="120" height="80" as="geometry" />
        </mxCell>
        <mxCell id="9CXjgOA-zutFCyBPXSmV-35" style="edgeStyle=orthogonalEdgeStyle;rounded=0;orthogonalLoop=1;jettySize=auto;html=1;exitX=0.5;exitY=1;exitDx=0;exitDy=0;exitPerimeter=0;entryX=0.5;entryY=0;entryDx=0;entryDy=0;entryPerimeter=0;" edge="1" parent="1" source="9CXjgOA-zutFCyBPXSmV-31" target="9CXjgOA-zutFCyBPXSmV-34">
          <mxGeometry relative="1" as="geometry" />
        </mxCell>
        <mxCell id="9CXjgOA-zutFCyBPXSmV-36" style="edgeStyle=orthogonalEdgeStyle;rounded=0;orthogonalLoop=1;jettySize=auto;html=1;exitX=0.5;exitY=1;exitDx=0;exitDy=0;exitPerimeter=0;entryX=0.5;entryY=0;entryDx=0;entryDy=0;entryPerimeter=0;" edge="1" parent="1" source="9CXjgOA-zutFCyBPXSmV-34" target="9CXjgOA-zutFCyBPXSmV-15">
          <mxGeometry relative="1" as="geometry" />
        </mxCell>
        <mxCell id="9CXjgOA-zutFCyBPXSmV-38" style="edgeStyle=orthogonalEdgeStyle;rounded=0;orthogonalLoop=1;jettySize=auto;html=1;exitX=0.5;exitY=1;exitDx=0;exitDy=0;exitPerimeter=0;entryX=0;entryY=0.5;entryDx=0;entryDy=0;entryPerimeter=0;" edge="1" parent="1" source="9CXjgOA-zutFCyBPXSmV-10" target="9CXjgOA-zutFCyBPXSmV-15">
          <mxGeometry relative="1" as="geometry">
            <Array as="points">
              <mxPoint x="500" y="860" />
              <mxPoint x="500" y="1560" />
            </Array>
          </mxGeometry>
        </mxCell>
        <mxCell id="9CXjgOA-zutFCyBPXSmV-39" value="Execute Google Sheet Update on the correct sheet" style="points=[[0.25,0,0],[0.5,0,0],[0.75,0,0],[1,0.25,0],[1,0.5,0],[1,0.75,0],[0.75,1,0],[0.5,1,0],[0.25,1,0],[0,0.75,0],[0,0.5,0],[0,0.25,0]];shape=mxgraph.bpmn.task2;whiteSpace=wrap;rectStyle=rounded;size=10;html=1;container=1;expand=0;collapsible=0;taskMarker=script;" vertex="1" parent="1">
          <mxGeometry x="695" y="1640" width="120" height="80" as="geometry" />
        </mxCell>
        <mxCell id="9CXjgOA-zutFCyBPXSmV-40" style="edgeStyle=orthogonalEdgeStyle;rounded=0;orthogonalLoop=1;jettySize=auto;html=1;exitX=0.5;exitY=1;exitDx=0;exitDy=0;exitPerimeter=0;entryX=0.5;entryY=0;entryDx=0;entryDy=0;entryPerimeter=0;" edge="1" parent="1" source="9CXjgOA-zutFCyBPXSmV-15" target="9CXjgOA-zutFCyBPXSmV-39">
          <mxGeometry relative="1" as="geometry" />
        </mxCell>
        <mxCell id="9CXjgOA-zutFCyBPXSmV-41" value="" style="points=[[0.145,0.145,0],[0.5,0,0],[0.855,0.145,0],[1,0.5,0],[0.855,0.855,0],[0.5,1,0],[0.145,0.855,0],[0,0.5,0]];shape=mxgraph.bpmn.event;html=1;verticalLabelPosition=bottom;labelBackgroundColor=#ffffff;verticalAlign=top;align=center;perimeter=ellipsePerimeter;outlineConnect=0;aspect=fixed;outline=end;symbol=terminate;" vertex="1" parent="1">
          <mxGeometry x="730" y="2020" width="50" height="50" as="geometry" />
        </mxCell>
        <mxCell id="9CXjgOA-zutFCyBPXSmV-44" value="&lt;font style=&quot;font-size: 11px;&quot;&gt;Provide Completion status in one of the div&lt;/font&gt;" style="points=[[0.25,0,0],[0.5,0,0],[0.75,0,0],[1,0.25,0],[1,0.5,0],[1,0.75,0],[0.75,1,0],[0.5,1,0],[0.25,1,0],[0,0.75,0],[0,0.5,0],[0,0.25,0]];shape=mxgraph.bpmn.task2;whiteSpace=wrap;rectStyle=rounded;size=10;html=1;container=1;expand=0;collapsible=0;taskMarker=script;" vertex="1" parent="1">
          <mxGeometry x="695" y="1780" width="120" height="80" as="geometry" />
        </mxCell>
        <mxCell id="9CXjgOA-zutFCyBPXSmV-45" style="edgeStyle=orthogonalEdgeStyle;rounded=0;orthogonalLoop=1;jettySize=auto;html=1;exitX=0.5;exitY=1;exitDx=0;exitDy=0;exitPerimeter=0;entryX=0.5;entryY=0;entryDx=0;entryDy=0;entryPerimeter=0;" edge="1" parent="1" source="9CXjgOA-zutFCyBPXSmV-39" target="9CXjgOA-zutFCyBPXSmV-44">
          <mxGeometry relative="1" as="geometry" />
        </mxCell>
        <mxCell id="9CXjgOA-zutFCyBPXSmV-48" style="edgeStyle=orthogonalEdgeStyle;rounded=0;orthogonalLoop=1;jettySize=auto;html=1;exitX=0.5;exitY=1;exitDx=0;exitDy=0;exitPerimeter=0;" edge="1" parent="1" source="9CXjgOA-zutFCyBPXSmV-46" target="9CXjgOA-zutFCyBPXSmV-41">
          <mxGeometry relative="1" as="geometry" />
        </mxCell>
        <mxCell id="9CXjgOA-zutFCyBPXSmV-46" value="&lt;font style=&quot;font-size: 11px;&quot;&gt;Erase all the inputs except on the Column Name&lt;/font&gt;" style="points=[[0.25,0,0],[0.5,0,0],[0.75,0,0],[1,0.25,0],[1,0.5,0],[1,0.75,0],[0.75,1,0],[0.5,1,0],[0.25,1,0],[0,0.75,0],[0,0.5,0],[0,0.25,0]];shape=mxgraph.bpmn.task2;whiteSpace=wrap;rectStyle=rounded;size=10;html=1;container=1;expand=0;collapsible=0;taskMarker=script;" vertex="1" parent="1">
          <mxGeometry x="695" y="1900" width="120" height="80" as="geometry" />
        </mxCell>
        <mxCell id="9CXjgOA-zutFCyBPXSmV-47" style="edgeStyle=orthogonalEdgeStyle;rounded=0;orthogonalLoop=1;jettySize=auto;html=1;exitX=0.5;exitY=1;exitDx=0;exitDy=0;exitPerimeter=0;entryX=0.5;entryY=0;entryDx=0;entryDy=0;entryPerimeter=0;" edge="1" parent="1" source="9CXjgOA-zutFCyBPXSmV-44" target="9CXjgOA-zutFCyBPXSmV-46">
          <mxGeometry relative="1" as="geometry" />
        </mxCell>
        <mxCell id="9CXjgOA-zutFCyBPXSmV-49" value="gsurlmapping.csv" style="shape=datastore;html=1;labelPosition=center;verticalLabelPosition=bottom;align=center;verticalAlign=top;" vertex="1" parent="1">
          <mxGeometry x="263" y="1510" width="100" height="100" as="geometry" />
        </mxCell>
        <mxCell id="9CXjgOA-zutFCyBPXSmV-50" style="edgeStyle=orthogonalEdgeStyle;rounded=0;orthogonalLoop=1;jettySize=auto;html=1;exitX=1;exitY=0.5;exitDx=0;exitDy=0;entryX=0;entryY=0.5;entryDx=0;entryDy=0;entryPerimeter=0;" edge="1" parent="1" source="9CXjgOA-zutFCyBPXSmV-49" target="9CXjgOA-zutFCyBPXSmV-15">
          <mxGeometry relative="1" as="geometry" />
        </mxCell>
      </root>
    </mxGraphModel>
  </diagram>
</mxfile>
